<svg version="1" xmlns="http://www.w3.org/2000/svg" width="682.667" height="682.667" viewBox="0 0 512.000000 512.000000"><path d="M279.9 17.8C263.5 43 250 65.8 238 88.5c-2.9 5.5-8.2 15.6-11.9 22.5-20.5 39-50 106.3-65 148.5-5.8 16.2-8 21.3-11.4 26.7-1.9 2.9-4.3 6.9-5.3 8.8-3.5 6.4-17.4 27.1-27.1 40.4-8.2 11.3-22.7 30-24.3 31.6-.3.3-3.6 4.1-7.4 8.5-10 11.6-31.8 32.9-41.6 40.8-10.8 8.7-23 16.8-34.5 22.9l-9 4.8 5.5.1c3 .1 8 .3 11 .4 7.5.5 82 .5 89.5.1 3.3-.3 12.1-.7 19.5-1.1 7.4-.3 14.9-.8 16.5-1 1.7-.2 7.1-.7 12-1 8.5-.6 31.8-3 39.5-4.1 7.3-1.1 9.6-1.5 12.3-2 3.4-.7 3.4 0-.1 10.5l-2.8 8.4 2.9 11.6c1.6 6.4 3.5 14.3 4.2 17.6.8 3.3 2.1 8.9 2.9 12.5.9 3.6 1.8 7.4 2.1 8.5.4 2.1 1 2.1 28.2 2 32.1 0 29.5 1.2 23.8-11.2-3.5-7.6-6.9-10.7-14.9-13.4-7.3-2.6-12.1-11.1-9.8-17.6 1.7-5 23.4-38 22.8-34.8-.3 1.6-.8 5-1.1 7.5-.3 2.5-.9 7-1.4 10-.9 5.5-.9 5.6 9.2 29.5 5.5 13.2 10.4 24.4 10.8 24.9.5.5 7.7-.2 17.6-1.9 9.2-1.5 17.9-2.9 19.3-3.1 1.4-.2 3.4-.6 4.5-.9 1.1-.2 4.3-.7 7-1 2.8-.4 5.4-1.1 5.9-1.5.5-.5-.5-3.1-2.4-6.2-6.2-9.9-10.4-13.2-17.7-14.4-5.8-.9-10.1-3.3-12.3-6.8-3.4-5.6-3.2-9.9 1-19.1 15.5-34.5 28.3-65.5 28.3-68.7-.1-2.4-1.7-6.9-4.6-12.5l-4.5-8.9 2.8-6.6 2.8-6.7-1.8-7.8c-1-4.3-2.1-9.9-2.4-12.4l-.7-4.5 6.5-2.6 6.5-2.6 3.9 9.2c2.2 5 4.9 11.1 5.9 13.6l2 4.5.8-6.5c.4-3.6.9-7.4 1-8.5.2-1.1.8-5.8 1.4-10.5.6-4.7 1.4-10.2 1.7-12.3.4-2.8.3-3.6-.8-3.3-1.4.5-30.8 1.7-30.8 1.3-.1-.1-.3-5.6-.6-12.3-.6-12.1-.6-12.1 2.2-16.2 1.6-2.3 3.2-4.1 3.6-4.2.4 0 5.7 3.4 11.7 7.5 6.1 4.1 11.3 7.5 11.5 7.5.6 0-2.1-6.1-10.8-24.3l-5.6-11.9-5.1 3.7c-2.8 2-5.3 3.5-5.5 3.2-.5-.4 2.9-17.1 4.5-22.5 2.2-7.5 7.4-20.2 8.3-20.2.5 0 3.5 1.3 6.6 2.9 21.2 10.7 58.1 23.2 78.2 26.6 1.9.3 4.2.8 5 1 1.8.5 7.3 1.2 16.1 2l6.6.6 3.8-5.3c2.1-2.9 8.5-11.7 14.3-19.5l10.5-14.1 12.2 4.3 12.2 4.3 1.6-7.6c.9-4.3 1.9-9.5 2.2-11.7.2-2.2.9-7.2 1.5-11.1 3.2-23.7 3.4-76.6.1-92.3-.6-3.1-1.9-4.2-13-10.9-36-21.6-78.8-40-129.1-55.3-21.9-6.7-58.7-15.9-73.9-18.4-1.9-.3-3.7-.8-4.1-1-.4-.3-4.5 5.3-9.1 12.3z"/></svg>